<svg xmlns="http://www.w3.org/2000/svg" width="42" height="40" viewBox="0 0 42 40">
  <path id="Icon_awesome-github" data-name="Icon awesome-github" d="M14.048,32.77c0,.165-.195.3-.44.3-.279.025-.474-.108-.474-.3,0-.165.195-.3.44-.3C13.828,32.448,14.048,32.58,14.048,32.77ZM11.415,32.4c-.059.165.11.356.364.405a.4.4,0,0,0,.525-.165c.051-.165-.11-.356-.364-.43A.439.439,0,0,0,11.415,32.4Zm3.743-.141c-.246.058-.415.215-.39.405.025.165.246.273.5.215s.415-.215.39-.38S15.4,32.233,15.157,32.258ZM20.729.563C8.984.563,0,9.272,0,20.744A20.778,20.778,0,0,0,14.353,40.529c1.084.19,1.465-.463,1.465-1,0-.513-.025-3.342-.025-5.079,0,0-5.927,1.241-7.172-2.465,0,0-.965-2.407-2.354-3.027,0,0-1.939-1.3.135-1.274A4.489,4.489,0,0,1,9.67,29.818c1.854,3.193,4.962,2.275,6.173,1.729A4.557,4.557,0,0,1,17.2,28.759c-4.733-.513-9.509-1.183-9.509-9.14a6.2,6.2,0,0,1,2-4.872,7.646,7.646,0,0,1,.22-5.616c1.77-.538,5.843,2.233,5.843,2.233a20.463,20.463,0,0,1,10.635,0s4.073-2.779,5.843-2.233a7.642,7.642,0,0,1,.22,5.616c1.355,1.464,2.185,2.605,2.185,4.872,0,7.982-4.987,8.619-9.721,9.14a4.832,4.832,0,0,1,1.44,3.838c0,2.787-.025,6.236-.025,6.915,0,.538.39,1.191,1.465,1A20.582,20.582,0,0,0,42,20.744C42,9.272,32.474.563,20.729.563ZM8.231,29.09c-.11.083-.085.273.059.43.135.132.33.19.44.083.11-.083.085-.273-.059-.43C8.535,29.04,8.341,28.982,8.231,29.09Zm-.915-.67c-.059.108.025.24.195.323a.256.256,0,0,0,.364-.058c.059-.108-.025-.24-.195-.323C7.511,28.312,7.375,28.337,7.316,28.42Zm2.744,2.945c-.135.108-.085.356.11.513.195.19.44.215.55.083.11-.108.059-.356-.11-.513C10.424,31.257,10.17,31.232,10.06,31.364Zm-.965-1.216c-.135.083-.135.3,0,.488s.364.273.474.19a.371.371,0,0,0,0-.513C9.45,30.124,9.23,30.041,9.094,30.148Z" transform="translate(0 -0.563)"/>
</svg>
